<?xml version="1.0"?>
<svg version="1.1" xmlns="http://www.w3.org/2000/svg" width="250" height="100" style=""><path fill="#ffffff" d="M43.872,68.468c0.036,0.612-0.144,0.972-0.828,0.972l-2.916,0c-0.756,0-0.9-0.36-0.936-1.188l-0.504-14.616l-0.072,0l-6.12,15.156c-0.216,0.576-0.576,0.648-0.972,0.648l-1.26,0c-0.54,0-0.864-0.108-1.116-0.684l-6.804-15.12l-0.072,0l-0.324,14.904c0,0.792-0.324,0.9-0.972,0.9l-2.448,0c-0.684,0-0.972-0.252-0.936-0.936l0.9-23.004c0.036-0.756,0.288-0.972,0.864-0.972l2.124,0c0.72,0,0.972,0.252,1.224,0.792l8.316,17.784l0.072,0l7.596-17.784c0.216-0.54,0.504-0.792,1.152-0.792l2.124,0c0.576,0,0.792,0.216,0.828,0.792z M66.354,45.14l0,0.216l-0.252,2.16c-0.072,0.648-0.468,0.756-1.224,0.756l-9.036,0l0,6.516l8.316,0c0.684,0,0.9,0.288,0.9,0.792l0,2.052c0,0.612-0.252,0.864-0.864,0.864l-8.352,0l0,10.044c0,0.648-0.252,0.9-0.864,0.9l-2.808,0c-0.72,0-0.972-0.18-0.972-0.972l0-23.04c0-0.576,0.252-0.9,0.828-0.9l13.572,0c0.54,0,0.756,0.18,0.756,0.612z"/><path fill="#" d="M92.864,62.168c0,5.004-4.068,7.704-8.748,7.704c-2.16,0-4.716-0.396-6.876-1.152c-0.468-0.18-0.612-0.396-0.612-0.684c0-0.144,0-0.288,0.072-0.468l0.756-2.34c0.108-0.36,0.288-0.576,0.648-0.576c0.144,0,0.324,0.036,0.54,0.108c1.692,0.612,3.564,1.08,5.364,1.08c1.944,0,4.14-0.936,4.14-3.204c0-1.656-1.224-2.556-2.628-3.24l-4.68-2.34c-2.556-1.26-4.248-3.384-4.248-6.192c0-4.392,4.32-6.804,8.316-6.804c2.376,0,4.356,0.36,6.444,1.26c0.468,0.216,0.72,0.432,0.72,0.72c0,0.144-0.036,0.288-0.108,0.468l-0.864,2.196c-0.144,0.396-0.36,0.54-0.612,0.54c-0.18,0-0.36-0.072-0.576-0.144c-1.476-0.612-3.312-1.116-4.752-1.116c-1.692,0-3.636,0.72-3.636,2.736c0,1.476,1.368,2.34,2.556,2.916l3.996,1.944c2.844,1.368,4.788,3.276,4.788,6.588z M114.446,68.72c0,0.54-0.108,0.72-0.576,0.72l-3.168,0c-0.504,0-0.612-0.144-0.612-0.72l0-10.008c0-1.944-0.54-3.384-2.7-3.384c-1.404,0-3.204,0.756-4.32,1.728l0,11.664c0,0.54-0.144,0.72-0.684,0.72l-3.096,0c-0.432,0-0.576-0.18-0.576-0.648l0-23.796c0-0.648,0.288-0.828,0.792-0.9l2.484-0.324c0.144-0.036,0.324-0.036,0.468-0.036c0.396,0,0.612,0.18,0.612,0.684l0,9.036c1.512-1.26,3.78-1.944,5.688-1.944c4.032,0,5.688,2.556,5.688,6.444l0,10.764z M125.984,47.408c0,1.404-1.224,2.268-2.412,2.268s-2.448-0.792-2.448-2.232s1.188-2.304,2.448-2.304c1.224,0,2.412,0.828,2.412,2.268z M125.768,68.54c0,0.648-0.288,0.9-0.9,0.9l-2.52,0c-0.648,0-0.936-0.252-0.936-0.9l0-15.732c0-0.612,0.36-0.828,0.936-0.828l2.52,0c0.576,0,0.9,0.18,0.9,0.828l0,15.732z M149.222,60.476c0,2.736-0.828,5.22-2.34,6.984c-1.332,1.512-3.204,2.448-5.544,2.448c-1.656,0-3.312-0.612-4.356-1.692l0,8.064c0,0.72-0.324,0.936-0.936,0.936l-2.52,0c-0.576,0-0.864-0.324-0.864-0.936l0-23.472c0-0.612,0.288-0.828,0.864-0.828l2.16,0c0.612,0,0.936,0.144,0.972,0.684l0.036,0.972c1.044-1.188,3.096-2.088,5.04-2.088c2.376,0,4.032,0.9,5.22,2.196c1.548,1.692,2.268,4.212,2.268,6.732z M144.686,60.692c0-1.692-0.324-3.168-1.044-4.176c-0.684-0.972-1.692-1.476-2.952-1.476c-1.332,0-2.988,0.864-3.708,1.764l0,7.848c0.72,0.972,2.16,1.764,3.528,1.764c1.26,0,2.268-0.576,2.88-1.332c0.9-1.116,1.296-2.628,1.296-4.392z M171.416,60.476c0,2.736-0.828,5.22-2.34,6.984c-1.332,1.512-3.204,2.448-5.544,2.448c-1.656,0-3.312-0.612-4.356-1.692l0,8.064c0,0.72-0.324,0.936-0.936,0.936l-2.52,0c-0.576,0-0.864-0.324-0.864-0.936l0-23.472c0-0.612,0.288-0.828,0.864-0.828l2.16,0c0.612,0,0.936,0.144,0.972,0.684l0.036,0.972c1.044-1.188,3.096-2.088,5.04-2.088c2.376,0,4.032,0.9,5.22,2.196c1.548,1.692,2.268,4.212,2.268,6.732z M166.88,60.692c0-1.692-0.324-3.168-1.044-4.176c-0.684-0.972-1.692-1.476-2.952-1.476c-1.332,0-2.988,0.864-3.708,1.764l0,7.848c0.72,0.972,2.16,1.764,3.528,1.764c1.26,0,2.268-0.576,2.88-1.332c0.9-1.116,1.296-2.628,1.296-4.392z M181.91,47.408c0,1.404-1.224,2.268-2.412,2.268s-2.448-0.792-2.448-2.232s1.188-2.304,2.448-2.304c1.224,0,2.412,0.828,2.412,2.268z M181.694,68.54c0,0.648-0.288,0.9-0.9,0.9l-2.52,0c-0.648,0-0.936-0.252-0.936-0.9l0-15.732c0-0.612,0.36-0.828,0.936-0.828l2.52,0c0.576,0,0.9,0.18,0.9,0.828l0,15.732z M204.248,68.504c0,0.612-0.216,0.936-0.864,0.936l-2.592,0c-0.648,0-0.864-0.324-0.864-0.936l0-9.792c0-1.98-0.54-3.384-2.736-3.384c-1.404,0-3.132,0.756-4.248,1.728l0,11.484c0,0.612-0.252,0.9-0.864,0.9l-2.628,0c-0.54,0-0.864-0.288-0.864-0.864l0-15.696c0-0.576,0.252-0.9,0.9-0.9l2.34,0c0.504,0,0.828,0.144,0.864,0.684l0.036,0.936c1.656-1.332,3.744-2.088,5.832-2.088c4.032,0,5.688,2.52,5.688,6.444l0,10.548z M226.478,68.252c0,5.832-2.484,9.072-8.532,9.072c-1.764,0-3.6-0.36-5.328-1.116c-0.396-0.18-0.576-0.396-0.576-0.72c0-0.18,0.072-0.324,0.108-0.468l0.504-1.584c0.144-0.396,0.288-0.648,0.54-0.648c0.18,0,0.36,0.072,0.54,0.144c1.296,0.54,2.772,0.936,4.032,0.936c3.6,0,4.356-1.908,4.356-4.788l0-1.44c-1.08,1.044-3.096,1.836-4.68,1.836c-2.232,0-4.032-0.72-5.292-2.052c-1.512-1.548-2.268-3.888-2.268-6.516c0-4.824,2.808-9.36,8.028-9.36c0.864,0,1.764,0.216,2.592,0.576c0.684,0.288,1.404,0.828,1.836,1.44l0.072-0.936c0.036-0.468,0.288-0.648,0.828-0.648l2.376,0c0.648,0,0.864,0.252,0.864,0.864l0,15.408z M222.122,64.22l0-7.416c-0.72-0.972-2.124-1.764-3.492-1.764c-1.116,0-2.016,0.432-2.664,1.044c-1.116,1.08-1.548,2.916-1.548,4.572c0,1.584,0.36,3.276,1.44,4.32c0.648,0.648,1.584,0.972,2.556,0.972c1.404,0,2.988-0.828,3.708-1.728z"/></svg>
